<?xml version="1.0" encoding="UTF-8"?>
<!DOCTYPE svg PUBLIC "-//W3C//DTD SVG 1.1//EN" "http://www.w3.org/Graphics/SVG/1.1/DTD/svg11.dtd">
<svg xmlns="http://www.w3.org/2000/svg" version="1.1" width="420px" height="420px" style="shape-rendering:geometricPrecision; text-rendering:geometricPrecision; image-rendering:optimizeQuality; fill-rule:evenodd; clip-rule:evenodd" xmlns:xlink="http://www.w3.org/1999/xlink">
<g><path style="opacity:1" fill="#5490fe" d="M 281.5,97.5 C 281.056,99.1132 280.056,100.28 278.5,101C 279.87,102.441 280.87,104.108 281.5,106C 279.55,105.877 277.883,106.877 276.5,109C 278.725,112.076 281.558,112.91 285,111.5C 286.678,112.466 287.345,113.799 287,115.5C 285.192,113.604 283.025,113.104 280.5,114C 282.943,116.558 282.443,117.392 279,116.5C 277.956,117.623 277.29,118.956 277,120.5C 275.605,119.185 274.605,119.519 274,121.5C 273.5,121 273,120.5 272.5,120C 273.625,117.861 274.958,116.694 276.5,116.5C 276.167,115.5 275.5,114.833 274.5,114.5C 272.379,116.021 270.879,118.021 270,120.5C 268.927,119.72 267.76,119.887 266.5,121C 267.684,122.145 267.684,123.312 266.5,124.5C 218.369,109.711 177.869,121.377 145,159.5C 134.778,173.616 128.111,189.282 125,206.5C 124.215,208.286 123.049,209.786 121.5,211C 110.167,211.333 98.8333,211.667 87.5,212C 62.6271,216.037 48.9604,230.537 46.5,255.5C 47.1136,273.063 55.1136,286.063 70.5,294.5C 107.847,257.319 145.347,220.319 183,183.5C 188.592,192.695 193.592,202.028 198,211.5C 168.167,240 139,269.167 110.5,299C 144.838,299.167 179.172,299.667 213.5,300.5C 203.595,311.116 193.262,321.282 182.5,331C 149.506,330.869 116.506,330.535 83.5,330C 48.6457,325.477 26.479,306.311 17,272.5C 10.4306,229.457 27.2639,199.957 67.5,184C 77.4626,181.636 87.4626,180.303 97.5,180C 98.6667,178.833 99.8333,177.667 101,176.5C 124.679,118.213 168.179,88.5463 231.5,87.5C 249.096,86.8858 265.763,90.2192 281.5,97.5 Z"/></g>
<g><path style="opacity:1" fill="#578ffe" d="M 281.5,97.5 C 292.505,101.53 302.505,107.196 311.5,114.5C 316.821,118.489 321.821,122.822 326.5,127.5C 325.199,128.64 324.032,129.973 323,131.5C 322.289,129.633 322.789,128.133 324.5,127C 322.693,126.072 321.026,124.906 319.5,123.5C 319.446,124.687 319.113,126.02 318.5,127.5C 317.585,125.082 316.085,123.082 314,121.5C 312.759,122.938 312.259,124.438 312.5,126C 313.253,127.487 314.086,127.654 315,126.5C 316.294,127.854 316.46,129.188 315.5,130.5C 317.585,132.575 319.419,132.575 321,130.5C 321.781,131.944 321.614,133.277 320.5,134.5C 319.575,135.641 318.741,135.641 318,134.5C 318.077,135.738 317.911,136.738 317.5,137.5C 316.117,134.924 315.283,135.258 315,138.5C 313.345,138.198 312.012,136.864 311,134.5C 309.148,136.23 309.314,137.396 311.5,138C 309.392,138.36 307.392,139.027 305.5,140C 307.595,140.556 307.762,141.056 306,141.5C 303.235,140.38 301.402,141.38 300.5,144.5C 290.423,135.791 279.09,129.125 266.5,124.5C 267.684,123.312 267.684,122.145 266.5,121C 267.76,119.887 268.927,119.72 270,120.5C 270.879,118.021 272.379,116.021 274.5,114.5C 275.5,114.833 276.167,115.5 276.5,116.5C 274.958,116.694 273.625,117.861 272.5,120C 273,120.5 273.5,121 274,121.5C 274.605,119.519 275.605,119.185 277,120.5C 277.29,118.956 277.956,117.623 279,116.5C 282.443,117.392 282.943,116.558 280.5,114C 283.025,113.104 285.192,113.604 287,115.5C 287.345,113.799 286.678,112.466 285,111.5C 281.558,112.91 278.725,112.076 276.5,109C 277.883,106.877 279.55,105.877 281.5,106C 280.87,104.108 279.87,102.441 278.5,101C 280.056,100.28 281.056,99.1132 281.5,97.5 Z"/></g>
<g><path style="opacity:1" fill="#588fff" d="M 311.5,114.5 C 310.862,116.46 310.862,118.293 311.5,120C 307.624,119.651 307.624,120.484 311.5,122.5C 311.062,123.506 310.396,123.506 309.5,122.5C 306.799,122.976 306.299,123.976 308,125.5C 309.183,124.269 310.349,124.269 311.5,125.5C 310.833,125.833 310.167,126.167 309.5,126.5C 310.376,127.251 311.376,127.751 312.5,128C 310.598,128.199 309.098,129.033 308,130.5C 306.474,125.373 305.474,125.373 305,130.5C 304.667,129.5 304.333,128.5 304,127.5C 298.858,129.55 297.025,128.383 298.5,124C 299.833,124 301.167,124 302.5,124C 300.216,122.637 300.049,121.137 302,119.5C 303.557,120.205 304.723,119.539 305.5,117.5C 307.553,116.473 309.553,115.473 311.5,114.5 Z"/></g>
<g><path style="opacity:1" fill="#588ffe" d="M 326.5,127.5 C 337.815,137.652 346.648,149.652 353,163.5C 353.818,166.227 353.652,168.894 352.5,171.5C 341.026,168.143 329.359,165.643 317.5,164C 312.37,157.037 306.704,150.537 300.5,144.5C 301.402,141.38 303.235,140.38 306,141.5C 307.762,141.056 307.595,140.556 305.5,140C 307.392,139.027 309.392,138.36 311.5,138C 309.314,137.396 309.148,136.23 311,134.5C 312.012,136.864 313.345,138.198 315,138.5C 315.283,135.258 316.117,134.924 317.5,137.5C 317.911,136.738 318.077,135.738 318,134.5C 318.741,135.641 319.575,135.641 320.5,134.5C 321.614,133.277 321.781,131.944 321,130.5C 319.419,132.575 317.585,132.575 315.5,130.5C 316.46,129.188 316.294,127.854 315,126.5C 314.086,127.654 313.253,127.487 312.5,126C 312.259,124.438 312.759,122.938 314,121.5C 316.085,123.082 317.585,125.082 318.5,127.5C 319.113,126.02 319.446,124.687 319.5,123.5C 321.026,124.906 322.693,126.072 324.5,127C 322.789,128.133 322.289,129.633 323,131.5C 324.032,129.973 325.199,128.64 326.5,127.5 Z"/></g>
<g><path style="opacity:1" fill="#568ffe" d="M 245.5,225.5 C 247.951,231.233 245.951,233.733 239.5,233C 241.901,233.805 241.734,234.638 239,235.5C 238.572,230.502 237.739,230.335 236.5,235C 239.15,238.207 238.984,238.707 236,236.5C 234.983,239.028 233.816,239.028 232.5,236.5C 231.522,236.977 230.689,237.643 230,238.5C 229.911,235.151 228.744,234.651 226.5,237C 227.167,237.333 227.833,237.667 228.5,238C 227.167,238.667 227.167,239.333 228.5,240C 227.833,240.333 227.167,240.667 226.5,241C 227.672,241.419 228.672,242.085 229.5,243C 229.272,243.399 228.938,243.565 228.5,243.5C 227.348,242.375 226.348,242.375 225.5,243.5C 212.498,223.137 199.831,202.47 187.5,181.5C 189.167,181.167 190.833,180.833 192.5,180.5C 201.51,181.016 210.51,181.682 219.5,182.5C 227.438,197.396 236.105,211.729 245.5,225.5 Z"/></g>
<g><path style="opacity:1" fill="#5a8efe" d="M 295.5,181.5 C 298.582,183.865 301.582,185.698 304.5,187C 302.193,188.828 302.526,190.494 305.5,192C 304.167,193.84 304.334,194.34 306,193.5C 306.308,194.308 306.808,194.975 307.5,195.5C 309.017,193.815 310.684,192.315 312.5,191C 310.714,190.804 309.381,189.971 308.5,188.5C 310.323,186.842 311.99,185.009 313.5,183C 312.944,182.617 312.611,182.117 312.5,181.5C 349.562,179.604 375.396,195.604 390,229.5C 400.917,264.743 392.083,293.91 363.5,317C 352.012,324.719 339.345,329.052 325.5,330C 302.169,330.5 278.836,330.667 255.5,330.5C 255.389,329.883 255.056,329.383 254.5,329C 257.022,327.314 256.689,325.981 253.5,325C 253.833,324.667 254.167,324.333 254.5,324C 253.234,323.691 252.067,323.191 251,322.5C 249.653,324.193 249.153,325.86 249.5,327.5C 248.573,325.887 247.739,324.221 247,322.5C 246.259,323.641 245.425,323.641 244.5,322.5C 243.536,325.083 242.202,325.583 240.5,324C 241.711,322.887 241.711,321.72 240.5,320.5C 241.718,320.891 242.552,320.224 243,318.5C 243.889,319.888 244.389,319.722 244.5,318C 242.482,317.95 240.482,317.117 238.5,315.5C 239.718,315.891 240.552,315.224 241,313.5C 241.333,313.833 241.667,314.167 242,314.5C 242.311,313.258 241.811,312.258 240.5,311.5C 241.262,311.089 242.262,310.923 243.5,311C 243.381,309.719 243.881,308.552 245,307.5C 247.152,309.277 246.985,310.777 244.5,312C 245,312.5 245.5,313 246,313.5C 249.883,310.274 253.716,307.107 257.5,304C 255.729,302.476 254.062,300.976 252.5,299.5C 252.833,299.5 253.167,299.5 253.5,299.5C 255.788,300.074 257.955,301.074 260,302.5C 260.414,302.043 260.914,301.709 261.5,301.5C 261.533,302.989 262.033,304.322 263,305.5C 263.5,304.333 264.333,303.5 265.5,303C 264.619,302.292 263.953,301.458 263.5,300.5C 280.17,300.667 296.837,300.5 313.5,300C 335.403,300.975 351.237,291.808 361,272.5C 368.946,243.796 359.113,223.962 331.5,213C 321.478,211.059 311.478,211.059 301.5,213C 298.297,216.371 294.964,219.538 291.5,222.5C 289.897,223.677 288.564,223.511 287.5,222C 288.641,221.259 288.641,220.425 287.5,219.5C 288.5,218.667 289.5,217.833 290.5,217C 289.167,215.667 287.833,214.333 286.5,213C 289.99,211.762 291.324,209.595 290.5,206.5C 291.239,206.631 291.906,206.464 292.5,206C 291.289,204.887 291.289,203.72 292.5,202.5C 291.91,201.201 290.91,200.368 289.5,200C 293.205,196.541 292.871,194.207 288.5,193C 291.088,190.232 290.755,188.232 287.5,187C 289.474,185.678 291.308,186.178 293,188.5C 294.067,187.809 295.234,187.309 296.5,187C 296.795,185.286 296.462,183.453 295.5,181.5 Z"/></g>
<g><path style="opacity:1" fill="#588ffe" d="M 295.5,181.5 C 300.957,181.263 306.624,181.263 312.5,181.5C 312.611,182.117 312.944,182.617 313.5,183C 311.99,185.009 310.323,186.842 308.5,188.5C 309.381,189.971 310.714,190.804 312.5,191C 310.684,192.315 309.017,193.815 307.5,195.5C 306.808,194.975 306.308,194.308 306,193.5C 304.334,194.34 304.167,193.84 305.5,192C 302.526,190.494 302.193,188.828 304.5,187C 301.582,185.698 298.582,183.865 295.5,181.5 Z"/></g>
<g><path style="opacity:1" fill="#588ffe" d="M 295.5,181.5 C 296.462,183.453 296.795,185.286 296.5,187C 295.234,187.309 294.067,187.809 293,188.5C 291.308,186.178 289.474,185.678 287.5,187C 290.755,188.232 291.088,190.232 288.5,193C 292.871,194.207 293.205,196.541 289.5,200C 290.91,200.368 291.91,201.201 292.5,202.5C 291.289,203.72 291.289,204.887 292.5,206C 291.906,206.464 291.239,206.631 290.5,206.5C 290.649,205.448 290.483,204.448 290,203.5C 288.869,204.604 288.035,204.271 287.5,202.5C 288.48,200.049 289.313,197.716 290,195.5C 288.581,196.46 287.081,197.293 285.5,198C 287.657,199.085 287.824,200.251 286,201.5C 285.019,198.345 283.685,198.012 282,200.5C 280.383,199.464 280.216,198.297 281.5,197C 280.295,195.624 278.962,194.458 277.5,193.5C 280.296,190.203 283.296,187.036 286.5,184C 289.206,182.092 292.206,181.259 295.5,181.5 Z"/></g>
<g><path style="opacity:1" fill="#5890ff" d="M 295.5,202.5 C 298.805,204.067 299.138,206.067 296.5,208.5C 297.025,209.192 297.692,209.692 298.5,210C 297.584,210.374 296.75,210.874 296,211.5C 293.595,208.8 294.095,206.967 297.5,206C 296.177,205.184 295.511,204.017 295.5,202.5 Z"/></g>
<g><path style="opacity:1" fill="#588fff" d="M 277.5,193.5 C 278.962,194.458 280.295,195.624 281.5,197C 280.216,198.297 280.383,199.464 282,200.5C 283.685,198.012 285.019,198.345 286,201.5C 287.824,200.251 287.657,199.085 285.5,198C 287.081,197.293 288.581,196.46 290,195.5C 289.313,197.716 288.48,200.049 287.5,202.5C 288.035,204.271 288.869,204.604 290,203.5C 290.483,204.448 290.649,205.448 290.5,206.5C 291.324,209.595 289.99,211.762 286.5,213C 287.833,214.333 289.167,215.667 290.5,217C 289.5,217.833 288.5,218.667 287.5,219.5C 288.641,220.425 288.641,221.259 287.5,222C 288.564,223.511 289.897,223.677 291.5,222.5C 281.167,233.5 270.5,244.167 259.5,254.5C 259.66,252.801 259.494,251.134 259,249.5C 257.513,250.253 257.346,251.086 258.5,252C 257.517,252.591 256.85,252.257 256.5,251C 256.761,248.927 256.761,246.927 256.5,245C 258.146,243.445 258.479,241.779 257.5,240C 258.103,238.175 258.77,236.341 259.5,234.5C 259.911,235.262 260.077,236.262 260,237.5C 260.333,237.167 260.667,236.833 261,236.5C 261.615,238.116 262.615,239.449 264,240.5C 265.493,238.652 267.326,237.819 269.5,238C 268.833,238.333 268.167,238.667 267.5,239C 269.224,239.448 269.891,240.282 269.5,241.5C 270.415,240.672 271.081,239.672 271.5,238.5C 270.515,236.902 270.349,235.235 271,233.5C 271.805,235.901 272.638,235.734 273.5,233C 272.167,232 272.167,231 273.5,230C 269.869,229.794 269.535,228.627 272.5,226.5C 273.478,226.977 274.311,227.643 275,228.5C 277.711,227.099 278.044,225.099 276,222.5C 275.259,223.641 274.425,223.641 273.5,222.5C 271.843,226.361 270.343,226.361 269,222.5C 268.667,223.167 268.333,223.833 268,224.5C 267.293,222.919 266.46,221.419 265.5,220C 266.603,218.32 266.27,216.82 264.5,215.5C 263.676,217.748 262.676,217.914 261.5,216C 263.667,213.833 265.833,211.667 268,209.5C 268.54,211.135 268.04,212.468 266.5,213.5C 267.441,213.489 268.108,213.989 268.5,215C 267.307,217.811 268.307,218.811 271.5,218C 270.833,217.667 270.167,217.333 269.5,217C 270.167,215.333 270.833,213.667 271.5,212C 270.833,211.667 270.167,211.333 269.5,211C 272.167,210.667 274.833,210.333 277.5,210C 276.328,209.581 275.328,208.915 274.5,208C 275.667,207.5 276.5,206.667 277,205.5C 278.879,207.527 280.046,209.86 280.5,212.5C 281.552,212.649 282.552,212.483 283.5,212C 279.745,209.216 279.745,206.549 283.5,204C 282.333,203.5 281.5,202.667 281,201.5C 280.085,202.328 279.419,203.328 279,204.5C 277.312,203.675 277.145,202.675 278.5,201.5C 277.624,200.749 276.624,200.249 275.5,200C 277.991,199.374 277.991,198.541 275.5,197.5C 277.435,196.787 277.768,195.787 276.5,194.5C 276.5,193.833 276.833,193.5 277.5,193.5 Z"/></g>
<g><path style="opacity:1" fill="#578ffe" d="M 276.5,194.5 C 277.768,195.787 277.435,196.787 275.5,197.5C 277.991,198.541 277.991,199.374 275.5,200C 276.624,200.249 277.624,200.749 278.5,201.5C 277.145,202.675 277.312,203.675 279,204.5C 279.419,203.328 280.085,202.328 281,201.5C 281.5,202.667 282.333,203.5 283.5,204C 279.745,206.549 279.745,209.216 283.5,212C 282.552,212.483 281.552,212.649 280.5,212.5C 280.046,209.86 278.879,207.527 277,205.5C 276.5,206.667 275.667,207.5 274.5,208C 275.328,208.915 276.328,209.581 277.5,210C 274.833,210.333 272.167,210.667 269.5,211C 270.167,211.333 270.833,211.667 271.5,212C 270.833,213.667 270.167,215.333 269.5,217C 270.167,217.333 270.833,217.667 271.5,218C 268.307,218.811 267.307,217.811 268.5,215C 268.108,213.989 267.441,213.489 266.5,213.5C 268.04,212.468 268.54,211.135 268,209.5C 265.833,211.667 263.667,213.833 261.5,216C 262.676,217.914 263.676,217.748 264.5,215.5C 266.27,216.82 266.603,218.32 265.5,220C 266.46,221.419 267.293,222.919 268,224.5C 268.333,223.833 268.667,223.167 269,222.5C 270.343,226.361 271.843,226.361 273.5,222.5C 274.425,223.641 275.259,223.641 276,222.5C 278.044,225.099 277.711,227.099 275,228.5C 274.311,227.643 273.478,226.977 272.5,226.5C 269.535,228.627 269.869,229.794 273.5,230C 272.167,231 272.167,232 273.5,233C 272.638,235.734 271.805,235.901 271,233.5C 270.349,235.235 270.515,236.902 271.5,238.5C 271.081,239.672 270.415,240.672 269.5,241.5C 269.891,240.282 269.224,239.448 267.5,239C 268.167,238.667 268.833,238.333 269.5,238C 267.326,237.819 265.493,238.652 264,240.5C 262.615,239.449 261.615,238.116 261,236.5C 260.667,236.833 260.333,237.167 260,237.5C 260.077,236.262 259.911,235.262 259.5,234.5C 258.77,236.341 258.103,238.175 257.5,240C 258.479,241.779 258.146,243.445 256.5,245C 256.761,246.927 256.761,248.927 256.5,251C 256.85,252.257 257.517,252.591 258.5,252C 257.346,251.086 257.513,250.253 259,249.5C 259.494,251.134 259.66,252.801 259.5,254.5C 253.5,261.167 247.167,267.5 240.5,273.5C 238.897,272.323 237.564,272.489 236.5,274C 236.833,274.333 237.167,274.667 237.5,275C 235.635,276.301 233.635,276.635 231.5,276C 232.5,275.667 233.5,275.333 234.5,275C 234.018,273.992 233.852,272.825 234,271.5C 233.282,272.451 232.449,272.617 231.5,272C 232.833,271 232.833,270 231.5,269C 234.543,266.884 236.877,264.217 238.5,261C 237.167,260.667 235.833,260.333 234.5,260C 236.797,258.84 236.464,257.84 233.5,257C 234.428,256.612 235.095,255.945 235.5,255C 234.576,253.85 234.576,252.85 235.5,252C 233.874,252.195 232.207,252.195 230.5,252C 229.636,250.863 228.636,249.53 227.5,248C 228.996,247.493 230.163,247.993 231,249.5C 231.617,248.551 231.451,247.718 230.5,247C 232.679,246.558 233.345,245.558 232.5,244C 234.158,243.275 234.658,242.108 234,240.5C 231.597,241.479 230.764,242.979 231.5,245C 230.002,245.585 229.002,245.085 228.5,243.5C 228.938,243.565 229.272,243.399 229.5,243C 228.672,242.085 227.672,241.419 226.5,241C 227.167,240.667 227.833,240.333 228.5,240C 227.167,239.333 227.167,238.667 228.5,238C 227.833,237.667 227.167,237.333 226.5,237C 228.744,234.651 229.911,235.151 230,238.5C 230.689,237.643 231.522,236.977 232.5,236.5C 233.816,239.028 234.983,239.028 236,236.5C 238.984,238.707 239.15,238.207 236.5,235C 237.739,230.335 238.572,230.502 239,235.5C 241.734,234.638 241.901,233.805 239.5,233C 245.951,233.733 247.951,231.233 245.5,225.5C 255.5,214.833 265.833,204.5 276.5,194.5 Z"/></g>
<g><path style="opacity:1" fill="#568ffe" d="M 240.5,273.5 C 235.036,279.465 229.37,285.298 223.5,291C 208.822,291.833 194.155,291.666 179.5,290.5C 194.182,274.985 209.348,259.985 225,245.5C 225.464,244.906 225.631,244.239 225.5,243.5C 226.348,242.375 227.348,242.375 228.5,243.5C 229.002,245.085 230.002,245.585 231.5,245C 230.764,242.979 231.597,241.479 234,240.5C 234.658,242.108 234.158,243.275 232.5,244C 233.345,245.558 232.679,246.558 230.5,247C 231.451,247.718 231.617,248.551 231,249.5C 230.163,247.993 228.996,247.493 227.5,248C 228.636,249.53 229.636,250.863 230.5,252C 232.207,252.195 233.874,252.195 235.5,252C 234.576,252.85 234.576,253.85 235.5,255C 235.095,255.945 234.428,256.612 233.5,257C 236.464,257.84 236.797,258.84 234.5,260C 235.833,260.333 237.167,260.667 238.5,261C 236.877,264.217 234.543,266.884 231.5,269C 232.833,270 232.833,271 231.5,272C 232.449,272.617 233.282,272.451 234,271.5C 233.852,272.825 234.018,273.992 234.5,275C 233.5,275.333 232.5,275.667 231.5,276C 233.635,276.635 235.635,276.301 237.5,275C 237.167,274.667 236.833,274.333 236.5,274C 237.564,272.489 238.897,272.323 240.5,273.5 Z"/></g>
<g><path style="opacity:1" fill="#578ffe" d="M 253.5,299.5 C 256.939,299.253 260.272,299.586 263.5,300.5C 263.953,301.458 264.619,302.292 265.5,303C 264.333,303.5 263.5,304.333 263,305.5C 262.033,304.322 261.533,302.989 261.5,301.5C 260.914,301.709 260.414,302.043 260,302.5C 257.955,301.074 255.788,300.074 253.5,299.5 Z"/></g>
<g><path style="opacity:1" fill="#5890ff" d="M 258.5,304.5 C 260.983,306.311 260.983,308.145 258.5,310C 259.956,310.423 260.456,311.256 260,312.5C 258.745,311.789 257.579,310.956 256.5,310C 257.861,308.416 258.528,306.582 258.5,304.5 Z"/></g>
<g><path style="opacity:1" fill="#578ffe" d="M 252.5,299.5 C 254.062,300.976 255.729,302.476 257.5,304C 253.716,307.107 249.883,310.274 246,313.5C 245.5,313 245,312.5 244.5,312C 246.985,310.777 247.152,309.277 245,307.5C 243.881,308.552 243.381,309.719 243.5,311C 242.262,310.923 241.262,311.089 240.5,311.5C 241.811,312.258 242.311,313.258 242,314.5C 241.667,314.167 241.333,313.833 241,313.5C 240.552,315.224 239.718,315.891 238.5,315.5C 240.482,317.117 242.482,317.95 244.5,318C 244.389,319.722 243.889,319.888 243,318.5C 242.552,320.224 241.718,320.891 240.5,320.5C 241.711,321.72 241.711,322.887 240.5,324C 242.202,325.583 243.536,325.083 244.5,322.5C 245.425,323.641 246.259,323.641 247,322.5C 247.739,324.221 248.573,325.887 249.5,327.5C 249.153,325.86 249.653,324.193 251,322.5C 252.067,323.191 253.234,323.691 254.5,324C 254.167,324.333 253.833,324.667 253.5,325C 256.689,325.981 257.022,327.314 254.5,329C 255.056,329.383 255.389,329.883 255.5,330.5C 242.829,330.667 230.162,330.5 217.5,330C 215.579,329.64 213.912,328.806 212.5,327.5C 220.959,319.542 229.292,311.375 237.5,303C 242.016,299.992 247.016,298.826 252.5,299.5 Z"/></g>
</svg>
