<?xml version="1.0" standalone="no"?><!DOCTYPE svg PUBLIC "-//W3C//DTD SVG 1.1//EN" "http://www.w3.org/Graphics/SVG/1.1/DTD/svg11.dtd"><svg t="1725081412567" class="icon" viewBox="0 0 1024 1024" version="1.1" xmlns="http://www.w3.org/2000/svg" p-id="11661" xmlns:xlink="http://www.w3.org/1999/xlink" width="200" height="200"><path d="M512.004919 1024a10.039216 10.039216 0 0 1-7.077647-2.961569l-501.960784-501.960784a10.039216 10.039216 0 0 1 0-14.155294l501.960784-501.960784a10.039216 10.039216 0 0 1 14.155294 0l501.960785 501.960784a10.039216 10.039216 0 0 1 0 14.155294l-501.960785 501.960784a10.039216 10.039216 0 0 1-7.077647 2.961569zM24.249625 512L512.004919 999.755294 999.760213 512 512.004919 24.244706z" fill="#00C0AC" p-id="11662"></path><path d="M361.015115 522.039216H10.044135a10.039216 10.039216 0 0 1-4.166275-19.174902l476.862745-218.453334a10.039216 10.039216 0 0 1 12.900393 14.155295L369.699037 517.019608a10.039216 10.039216 0 0 1-8.683922 5.019608z m-304.941176-20.078432h299.118431l107.26902-186.177255zM535.898253 740.492549a10.039216 10.039216 0 0 1-8.734118-15.058824L653.005704 506.980392a10.039216 10.039216 0 0 1 8.683921-5.019608h350.97098a10.039216 10.039216 0 0 1 4.166275 19.174902l-476.862745 218.453334a10.039216 10.039216 0 0 1-4.065882 0.903529zM667.612762 522.039216l-107.218823 186.177255 406.588235-186.177255z" fill="#00C0AC" p-id="11663"></path><path d="M261.978253 957.289412a10.039216 10.039216 0 0 1-9.687844-7.42902L67.06688 264.583529a10.039216 10.039216 0 0 1 7.077647-12.298039l685.276863-185.223529a10.039216 10.039216 0 0 1 7.629804 1.003921 10.039216 10.039216 0 0 1 4.668235 6.073726l185.223529 685.276863a10.039216 10.039216 0 0 1-7.077647 12.298039l-685.276862 185.223529a9.587451 9.587451 0 0 1-2.610196 0.351373zM89.052762 269.05098L269.0559 934.952157l665.901176-180.003137L754.953939 89.047843z" fill="#00C0AC" p-id="11664"></path><path d="M193.209625 338.873725a10.039216 10.039216 0 0 1-5.019608-1.305098l-116.454902-66.911372a10.039216 10.039216 0 0 1 10.039216-17.418039l116.404706 66.911372a10.039216 10.039216 0 0 1-5.019608 18.723137zM946.100605 771.413333a10.039216 10.039216 0 0 1-5.019607-1.305098l-115.450981-66.359215a10.039216 10.039216 0 1 1 10.039216-17.41804l115.45098 66.359216a10.039216 10.039216 0 0 1-5.019608 18.723137zM829.344527 338.271373a10.039216 10.039216 0 0 1-5.019608-18.723138l116.304314-67.112157a10.039216 10.039216 0 0 1 10.039216 17.41804l-116.304314 67.112157a10.039216 10.039216 0 0 1-5.019608 1.305098zM77.256684 772.216471a10.039216 10.039216 0 0 1-8.734118-5.019608 10.039216 10.039216 0 0 1 3.664314-13.70353l115.45098-66.56a10.039216 10.039216 0 0 1 10.039216 17.41804l-115.45098 66.56a10.039216 10.039216 0 0 1-4.969412 1.305098zM512.004919 154.704314a10.039216 10.039216 0 0 1-10.039215-10.039216l0.301176-134.27451a10.039216 10.039216 0 0 1 10.039216-10.039215 10.039216 10.039216 0 0 1 10.039215 10.039215L522.044135 144.665098a10.039216 10.039216 0 0 1-10.039216 10.039216zM510.348449 1022.996078a10.039216 10.039216 0 0 1-10.039216-10.039215l0.301176-133.220392a10.039216 10.039216 0 0 1 10.039216-10.039216 10.039216 10.039216 0 0 1 10.039216 10.039216l-0.301177 133.220392a10.039216 10.039216 0 0 1-10.039215 10.039215z" fill="#00C0AC" p-id="11665"></path><path d="M763.939037 956.235294a11.64549 11.64549 0 0 1-2.610196-0.351372L75.299037 773.621961a10.039216 10.039216 0 0 1-6.123922-4.668236 10.390588 10.390588 0 0 1-1.003921-7.629803L250.382958 75.294118a10.039216 10.039216 0 0 1 12.29804-7.127843L948.710802 250.378039a10.039216 10.039216 0 0 1 7.127843 12.298039L773.62688 948.705882a10.039216 10.039216 0 0 1-9.687843 7.529412zM90.35786 756.806275l666.704314 177.091764 176.840784-666.704314L267.248841 90.352941z" fill="#00C0AC" p-id="11666"></path><path d="M436.208841 391.529412a10.039216 10.039216 0 0 1-8.683922-5.019608L251.437076 82.873725A10.039216 10.039216 0 0 1 266.044135 69.621961l428.222745 302.782745a10.039216 10.039216 0 0 1-5.772549 18.221176L436.259037 391.529412zM291.895115 112.589804L441.98139 371.45098l214.889412-0.702745zM763.236292 955.080784a10.039216 10.039216 0 0 1-5.772549-1.857255l-428.222745-302.782745a10.039216 10.039216 0 0 1-3.764706-11.193725 10.039216 10.039216 0 0 1 9.537255-7.027451l252.084706-0.803137a10.039216 10.039216 0 0 1 8.683921 5.019607l176.138039 303.535687a10.039216 10.039216 0 0 1-8.683921 15.058823zM366.436292 652.197647l364.975686 258.058039-150.136471-258.760784z" fill="#00C0AC" p-id="11667"></path><path d="M258.564919 955.331765a10.039216 10.039216 0 0 1-9.687843-7.479216L69.024527 261.019608a10.039216 10.039216 0 0 1 7.127843-12.247843L762.985311 69.019608a10.039216 10.039216 0 0 1 12.247844 7.127843L954.985311 762.980392a10.039216 10.039216 0 0 1-7.127843 12.247843L261.024527 954.980392a8.985098 8.985098 0 0 1-2.459608 0.351373zM90.960213 265.738039l174.782745 667.306667 667.306667-174.782745-174.782745-667.306667z" fill="#00C0AC" p-id="11668"></path><path d="M713.291194 610.585098a10.039216 10.039216 0 0 1-8.734118-5.019608L579.518645 386.509804a10.039216 10.039216 0 0 1 0-10.039216l177.192157-302.933333a10.039216 10.039216 0 0 1 18.672941 6.073725l-52.153726 522.039216a10.039216 10.039216 0 0 1-7.880784 8.83451 15.058824 15.058824 0 0 1-2.058039 0.100392z m-113.443138-228.843922l106.566275 186.528628 44.473725-444.787451zM259.267664 954.177255A9.386667 9.386667 0 0 1 256.004919 953.72549a10.039216 10.039216 0 0 1-6.876863-10.541176L301.18139 421.295686a10.039216 10.039216 0 0 1 7.93098-8.784313 10.039216 10.039216 0 0 1 10.792157 5.019607l125.038431 218.905098a10.039216 10.039216 0 0 1 0 10.039216L267.90139 949.207843a10.039216 10.039216 0 0 1-8.633726 4.969412zM318.248056 454.575686l-44.423529 444.787451 151.04-258.208627z" fill="#00C0AC" p-id="11669"></path></svg>