<?xml version="1.0" standalone="no"?><!DOCTYPE svg PUBLIC "-//W3C//DTD SVG 1.1//EN" "http://www.w3.org/Graphics/SVG/1.1/DTD/svg11.dtd"><svg t="1725080546124" class="icon" viewBox="0 0 1027 1024" version="1.1" xmlns="http://www.w3.org/2000/svg" p-id="3244" xmlns:xlink="http://www.w3.org/1999/xlink" width="200.5859375" height="200"><path d="M870.4 157.538462H708.923077l86.646154-90.584616c15.753846-15.753846 15.753846-39.384615 0-55.138461-15.753846-15.753846-39.384615-15.753846-55.138462 0L602.584615 157.538462h-181.16923L279.630769 11.815385c-15.753846-15.753846-39.384615-15.753846-55.138461 0-15.753846 15.753846-15.753846 39.384615 0 55.138461L315.076923 157.538462H153.6C66.953846 157.538462 0 228.430769 0 315.076923v551.384615c0 86.646154 66.953846 157.538462 153.6 157.538462h720.738462c82.707692 0 153.6-70.892308 153.6-157.538462V315.076923c-3.938462-86.646154-70.892308-157.538462-157.538462-157.538461z m-669.538462 547.446153H129.969231v-279.630769H196.923077v279.630769z m232.369231-141.784615c-3.938462 11.815385-11.815385 23.630769-23.630769 31.507692-7.876923 3.938462-11.815385 7.876923-19.692308 11.815385-7.876923 3.938462-15.753846 3.938462-23.630769 7.876923-15.753846 3.938462-31.507692 3.938462-51.2 3.938462h-15.753846v86.646153H228.430769v-279.630769h106.338462c11.815385 0 27.569231 0 39.384615 3.938462 11.815385 3.938462 27.569231 11.815385 35.446154 19.692307 7.876923 7.876923 15.753846 19.692308 19.692308 31.507693 3.938462 11.815385 7.876923 23.630769 7.876923 39.384615 3.938462 15.753846 3.938462 31.507692-3.938462 43.323077z m224.492308-82.707692H590.769231v224.492307h-66.953846v-224.492307h-66.953847v-55.138462h204.8l-3.938461 55.138462z m181.169231 224.492307h-102.4l-74.83077-279.630769h74.83077l51.2 220.553846 51.2-220.553846h74.830769l-74.830769 279.630769z" fill="#FFAE36" p-id="3245"></path><path d="M350.523077 484.430769c-3.938462-3.938462-11.815385-3.938462-19.692308-3.938461h-31.507692v82.707692h27.569231c7.876923 0 11.815385 0 19.692307-3.938462 3.938462 0 11.815385-3.938462 15.753847-7.876923 7.876923-7.876923 11.815385-15.753846 11.815384-27.56923 0-11.815385-3.938462-19.692308-11.815384-27.569231-3.938462-7.876923-7.876923-7.876923-11.815385-11.815385z" fill="#FFAE36" p-id="3246"></path></svg>