<?xml version="1.0" standalone="no"?><!DOCTYPE svg PUBLIC "-//W3C//DTD SVG 1.1//EN" "http://www.w3.org/Graphics/SVG/1.1/DTD/svg11.dtd"><svg t="1725112401735" class="icon" viewBox="0 0 1024 1024" version="1.1" xmlns="http://www.w3.org/2000/svg" p-id="6279" xmlns:xlink="http://www.w3.org/1999/xlink" width="200" height="200"><path d="M511.333647 960.291842A448.184945 448.184945 0 0 1 336.932938 99.407505a448.184945 448.184945 0 0 1 348.811408 825.678511 445.377671 445.377671 0 0 1-174.410699 35.205826z m0-895.131094c-246.510711 0-447.066032 200.55532-447.066032 447.066032s200.55532 447.066032 447.066032 447.066031 447.066032-200.525349 447.066031-447.066031-200.54533-447.066032-447.066031-447.066032z" fill="#CCCCCC" p-id="6280"></path><path d="M511.333647 704.540101c-106.037069 0-192.313321-86.266261-192.313321-192.313321s86.276251-192.313321 192.313321-192.313321 192.313321 86.276251 192.313321 192.313321-86.266261 192.313321-192.313321 192.313321z m0-383.627612c-105.487603 0-191.314291 85.826688-191.314291 191.314291s85.826688 191.314291 191.314291 191.31429 191.314291-85.816697 191.31429-191.31429-85.816697-191.314291-191.31429-191.314291z" fill="#CCCCCC" p-id="6281"></path><path d="M909.127507 928.602603h-792.230979a19.211351 19.211351 0 0 1-19.191371-19.221342V117.070359a19.211351 19.211351 0 0 1 19.171391-19.211351h792.230978a19.211351 19.211351 0 0 1 19.171391 19.211351v792.310902a19.211351 19.211351 0 0 1-19.15141 19.221342z m-792.230979-829.334962a17.812709 17.812709 0 0 0-17.792728 17.802718v792.310902a17.802719 17.802719 0 0 0 17.772748 17.812709h792.230978a17.802719 17.802719 0 0 0 17.762758-17.812709V117.070359a17.802719 17.802719 0 0 0-17.762758-17.812709z" fill="#CCCCCC" p-id="6282"></path><path d="M909.127507 960.002123h-792.230979c-10.749565 0-19.17139-8.991272-19.17139-20.400198V84.292177c0-11.398935 8.60165-20.679926 19.17139-20.679926h792.230979c10.56974 0 19.17139 9.280991 19.17139 20.679926V939.591935c0 11.448887-8.421825 20.410188-19.17139 20.410188z m-792.230979-894.991229c-9.800487 0-17.772748 8.651602-17.772748 19.281283V939.591935c0 10.649662 7.812416 18.981575 17.772748 18.981575h792.230979c9.990302 0 17.762758-8.351893 17.762758-18.981575V84.292177c0-10.629682-7.992242-19.281284-17.762758-19.281283z" fill="#CCCCCC" p-id="6283"></path><path d="M939.9376 928.52268H84.637842c-11.408925 0-20.689916-8.60165-20.689916-19.17139v-792.230979c0-10.56974 9.280991-19.1614 20.689916-19.1614h855.299758c11.408925 0 20.679926 8.59166 20.679926 19.1614v792.230979c0 10.56974-9.271001 19.17139-20.679926 19.17139z m-855.299758-829.195098c-10.639672 0-19.291274 7.992242-19.291274 17.762758v792.230979c0 9.800487 8.651602 17.772748 19.291274 17.772748h855.299758c10.639672 0 19.281284-7.992242 19.281283-17.772748v-792.230979c0-9.790496-8.641612-17.762758-19.281283-17.762758z" fill="#CCCCCC" p-id="6284"></path><path d="M0.002997 0.98904l0.98904-0.98904L1023.996004 1023.002968l-0.98904 0.98904z" fill="#CCCCCC" p-id="6285"></path><path d="M0.002997 1023.01096L1023.006964 0.006993l0.98904 0.98904L0.992037 1023.999001z" fill="#CCCCCC" p-id="6286"></path><path d="M163.091686 525.933475h-2.99709v-1.998061h-31.968968v-24.076628h3.077013v21.139479h28.871974v-21.529101h2.997091z m-1.99806-0.999031h0.99903v-24.46625h-0.99903v21.529102h-30.870034v-21.13948h-1.078953v22.13851h31.968968zM162.712055 492.495933h-34.146854v-2.907178h34.146854z m-33.147823-0.999031h32.148793v-0.909117h-32.148793z" fill="#999999" p-id="6287"></path><path d="M156.218358 516.902241h-21.539092v-19.880701h21.539092z m-20.540061-0.99903h19.541031v-17.882641h-19.541031z" fill="#999999" p-id="6288"></path><path d="M145.019229 506.542298h-8.511737v-7.702523h8.511737z m-7.512707-0.99903h6.513677v-5.704463h-6.513677zM145.019229 515.074016h-8.511737v-7.752475h8.511737z m-7.512707-0.99903h6.513677v-5.754414h-6.513677zM154.350172 506.542298h-8.461786v-7.702523h8.461786z m-7.462756-0.99903h6.463726v-5.704463h-6.463726zM154.350172 515.074016h-8.461786v-7.752475h8.461786z m-7.462756-0.99903h6.463726v-5.754414h-6.463726zM191.404203 526.193223h-2.99709v-19.271294h-9.400875v15.155289h-2.997091v-14.156258a35.515525 35.515525 0 0 1-5.874297 5.194957l-0.409603 0.279728-0.289719-0.399612a11.718625 11.718625 0 0 0-1.218816-1.548497l-0.419593-0.429583 0.489525-0.33967a38.722412 38.722412 0 0 0 11.988362-14.236181h-11.179148v-2.997091h12.487878a48.642782 48.642782 0 0 0 2.29777-6.423764l0.129874-0.469544 3.067022 0.749272-0.159844 0.509506a52.18934 52.18934 0 0 1-1.998061 5.63453h22.098549v2.997091h-23.44724a55.945693 55.945693 0 0 1-4.465665 7.532688h9.300972v-6.193987h2.99709v6.233948h13.067316v14.455968a2.467605 2.467605 0 0 1-1.798255 2.777304c-1.218817 0.359651-3.436664 0.399612-7.362852 0.359651h-0.399613l-0.079922-0.379632a6.223958 6.223958 0 0 0-0.709311-1.67837l-0.479535-0.779244h0.919108c3.106984 0.089913 5.714453 0 6.413774 0a1.118914 1.118914 0 0 0 0.429583-0.069932v-11.778567h-9.990302z m-1.99806-0.999031h0.99903v-19.271293h11.988363v12.467897c0 1.108924-0.66935 1.30873-1.398642 1.348691s-2.747333 0.079922-5.644521 0c0.119884 0.269738 0.219787 0.549467 0.309699 0.809215 3.516586 0 5.634531 0 6.683512-0.31969 0.749273-0.229777 1.088943-0.549467 1.088943-1.818235V505.013782h-13.027354v-6.193988h-0.99903v6.193988H177.128061l0.599418-0.799225a54.497099 54.497099 0 0 0 5.085064-8.451795l0.139865-0.279729h23.027647v-0.99903H183.322049l0.309699-0.699321a48.952482 48.952482 0 0 0 2.157905-5.724444l-1.098933-0.269738a49.342103 49.342103 0 0 1-2.347721 6.403784l-0.139864 0.289719h-12.108247v0.99903h11.718625l-0.349661 0.719302a40.600589 40.600589 0 0 1-12.178178 14.985453c0.189816 0.229777 0.399612 0.509505 0.639379 0.829196a35.175855 35.175855 0 0 0 6.164017-5.734434l0.879146-0.99903v15.844619h0.999031v-15.20524h11.398935zM212.643586 526.243174l-0.229777-0.369641a5.62454 5.62454 0 0 0-1.388652-1.508536l-0.739282-0.519495 0.829195-0.349661c8.891369-3.796315 14.366055-10.739575 16.723766-21.199422h-16.264212v-2.99709h16.793698a83.26917 83.26917 0 0 0 0.729292-11.348984v-1.208827h3.176916v0.679341a91.451228 91.451228 0 0 1-0.729292 11.87847h17.982545v2.99709h-16.483999c3.266829 10.220079 9.191078 17.622893 16.753737 20.899713l0.729292 0.31969-0.609409 0.519495a8.561689 8.561689 0 0 0-1.428613 1.798255l-0.239767 0.369641-0.399612-0.189816c-7.792436-3.716392-13.766637-11.209119-17.353155-21.728908-2.547527 10.409895-8.411835 17.732787-17.453059 21.77886z m-0.399612-2.157905a7.622601 7.622601 0 0 1 0.769253 0.889137c8.991272-4.165956 14.705725-11.798547 16.903592-22.677987l0.389622-1.928128 0.579437 1.878177c3.366732 10.989333 9.24103 18.811739 16.983514 22.677986a12.427936 12.427936 0 0 1 0.839186-1.108923c-7.662562-3.606499-13.626772-11.338993-16.84365-21.868772l-0.199806-0.64937h16.813679v-0.99903h-18.142389l0.089912-0.569447a86.915631 86.915631 0 0 0 0.789234-11.988363h-1.118914v0.219786a81.111265 81.111265 0 0 1-0.809214 11.918431l-0.059942 0.419593h-16.653834v0.99903h16.50398l-0.129874 0.599418c-2.287779 10.849468-7.752475 18.102428-16.653834 22.188462zM254.922546 517.551611l-0.379632-0.379631a10.180118 10.180118 0 0 0-1.638409-1.148885l-0.529486-0.3097 0.409602-0.449563c4.765374-5.364792 6.93327-14.036375 7.652572-17.513l0.089913-0.479535 3.206887 0.609409-0.119884 0.509505c-1.348691 5.754414-3.896218 13.676724-8.341903 18.761788z m-0.99903-2.077983c0.299709 0.189816 0.639379 0.419593 0.929098 0.639379 3.996121-4.785355 6.363823-11.988363 7.682542-17.443067l-1.218817-0.239768c-0.799224 3.726383-2.937149 11.728615-7.402814 17.043456zM266.830986 526.073339h-2.507566l-0.099903-0.349661a14.985454 14.985454 0 0 0-0.859166-2.117944l-0.399612-0.759263h0.859166c3.206887 0.089913 6.154026 0.089913 7.043163 0 0.619399 0 0.629389 0 0.62939-0.649369v-34.856165h3.126964v34.916106c0 1.99806-0.639379 2.997091-2.187876 3.446655a25.175562 25.175562 0 0 1-5.60456 0.369641z m-1.768283-0.99903a34.966058 34.966058 0 0 0 7.103105-0.32968c0.99903-0.289719 1.458584-0.759263 1.458584-2.487586v-33.917076h-1.128904v33.917076c0 1.128904-0.439573 1.588458-1.578468 1.63841-0.849176 0.049952-3.376722 0.049952-6.313871 0 0.179825 0.399612 0.33967 0.839185 0.459554 1.178856zM290.218284 517.83134l-0.129874-0.609409c-0.99903-4.755384-4.455675-12.577791-8.251989-18.591953l-0.3097-0.499515 2.787294-1.198836 0.229777 0.349661c3.996121 6.213968 7.562659 13.986423 8.601651 18.801749l0.079922 0.389621z m-7.232979-19.241323c3.576528 5.784385 6.823377 13.067316 7.942291 17.8227l1.148884-0.519496c-1.088943-4.665471-4.375752-11.818528-8.142096-17.712806zM304.714213 502.016691a3.136955 3.136955 0 0 1-3.206887-3.206887c0-4.225898 6.423764-4.225898 6.423764 0a3.136955 3.136955 0 0 1-3.216877 3.206887z m0-5.424734a2.117944 2.117944 0 0 0-2.207857 2.217847 2.217847 2.217847 0 0 0 4.425704 0 2.117944 2.117944 0 0 0-2.217847-2.237828zM304.714213 523.096229a3.146945 3.146945 0 0 1-3.206887-3.216878c0-4.225898 6.423764-4.225898 6.423764 0a3.146945 3.146945 0 0 1-3.216877 3.216878z m0-5.434725a2.117944 2.117944 0 0 0-2.207857 2.217847 2.217847 2.217847 0 0 0 4.425704 0 2.117944 2.117944 0 0 0-2.217847-2.217847zM335.694141 522.996326h-16.983514v-3.156936h6.993211v-24.176531h-5.394763v-2.577499l0.419593-0.069932a17.18332 17.18332 0 0 0 5.734433-1.888167l0.119884-0.069932h2.627449v28.782061h6.453736z m-15.984484-0.99903h14.985453v-1.158875h-6.453735V492.026388h-1.368671a17.822699 17.822699 0 0 1-5.534628 1.878177v0.729292h5.394763v26.174593h-6.993211zM349.400836 523.565773c-6.203978 0-9.620661-5.914259-9.620662-16.633853s3.416683-16.414067 9.620662-16.414067 9.59069 5.834337 9.59069 16.414067-3.406693 16.633853-9.59069 16.633853z m0-32.04889c-5.554608 0-8.621631 5.474686-8.621631 15.415037s3.067023 15.634823 8.621631 15.634823 8.59166-5.554608 8.59166-15.634823-3.057033-15.415037-8.59166-15.415037z" fill="#999999" p-id="6289"></path><path d="M349.400836 521.4778c-4.545588 0-7.163047-5.29486-7.163047-14.54588s2.617459-14.336084 7.163047-14.336084 7.123086 5.224928 7.123085 14.336084-2.597479 14.54588-7.123085 14.54588z m0-27.882934c-3.916199 0-6.164017 4.865277-6.164017 13.337054s2.247818 13.54685 6.164017 13.54685 6.124055-4.935209 6.124055-13.54685-2.227837-13.337054-6.124055-13.337054zM381.779406 522.996326H362.148461v-2.257809l0.169835-0.149854c9.990302-8.621631 14.465958-14.985454 14.465958-20.629974 0-1.908148-0.569447-6.373813-5.824346-6.373813-2.267799 0-4.565568 1.30873-6.483706 3.676431l-0.33967 0.419593-2.317751-2.187877 0.32968-0.359651c1.938119-2.157905 4.715423-4.62551 9.071195-4.62551 5.594569 0 9.071195 3.586519 9.071194 9.370904s-3.716392 11.798547-12.377984 20.070518c1.208827-0.079922 2.527547-0.159845 3.726383-0.159845h10.140157z m-18.631914-0.99903h17.632883v-1.198837H371.639249c-1.6484 0-3.536567 0.139864-5.055093 0.259748l-1.418623 0.099903 0.99903-0.99903c9.171098-8.551699 13.087296-14.625803 13.087296-20.300294 0-5.164986-3.096994-8.371873-8.072164-8.371874-2.997091 0-5.444715 1.218817-7.992242 3.936179l0.829195 0.779244c1.99806-2.347721 4.475655-3.63647 6.913289-3.63647 4.275849 0 6.823377 2.757323 6.823377 7.372843 0 5.924249-4.515617 12.477888-14.635793 21.239383zM400.830912 522.996326h-3.416683v-8.821437h-13.666734v-2.167896l13.896511-20.979635h3.186906v20.030556h4.365762v3.087004h-4.365762z m-2.417653-0.99903h1.418623v-8.821437h4.365762v-1.088943h-4.365762V492.026388h-1.65839l-13.426967 20.190402v0.929098h13.666734z" fill="#999999" p-id="6290"></path><path d="M398.413259 512.096906h-12.288072l8.991272-13.077306c0.859166-1.338701 1.698351-2.807275 2.437634-4.225898l0.139864-0.269738h1.058972l-0.049951 0.539476c-0.119884 1.408633-0.249758 3.696412-0.249758 5.095055z m-10.379924-0.99903h9.380894v-10.909411c0-0.889137 0.049952-2.137925 0.119883-3.296799-0.519496 0.919108-1.068962 1.838216-1.618429 2.707372zM425.956523 522.996326h-3.996121l-3.996121-6.213968a39.291859 39.291859 0 0 0-2.257809-3.646461c-0.33967 0.549467-0.679341 1.098933-0.99903 1.668381s-0.799224 1.31872-1.228807 1.99806l-3.786325 6.193988h-3.826285l7.992241-12.338024-7.332881-11.279051h3.916198l3.62648 5.794375c0.619399 0.99903 1.288749 2.077983 2.058002 3.216878 0.419593-0.689331 0.829195-1.368671 1.238798-2.067993l4.185936-6.993212h3.776335l-7.312902 11.528809z m-3.416684-0.99903h1.548497l-7.302911-11.079246 6.693503-10.539769h-1.388652l-3.886228 6.463726c-0.519496 0.869156-0.99903 1.738313-1.568477 2.597478l-0.149855 0.229777h-0.709311l-0.149855-0.209796a77.62465 77.62465 0 0 1-2.437634-3.766344l-3.32677-5.314841h-1.518526l6.683512 10.280021-7.332882 11.338994h1.408633l3.496605-5.744424c0.429583-0.66935 0.829195-1.31872 1.218817-1.998061s0.889137-1.458584 1.338701-2.157905l0.149854-0.229777h0.789234l0.149855 0.209796a41.729493 41.729493 0 0 1 2.617459 4.165956zM446.067001 522.996326h-16.983514v-3.156936h6.993212v-24.176531h-5.394763v-2.577499l0.399612-0.059941a17.323184 17.323184 0 0 0 5.744424-1.888167l0.109893-0.069933h2.62745v28.782062h6.503686z m-15.984483-0.99903h14.985453v-1.158875H438.574275V492.026388h-1.358682a17.912612 17.912612 0 0 1-5.534627 1.878177v0.729292h5.394763v26.174593h-6.993211zM459.743725 523.565773c-6.213968 0-9.630651-5.914259-9.630651-16.633853s3.416683-16.414067 9.630651-16.414067 9.5807 5.834337 9.5807 16.414067-3.406693 16.633853-9.5807 16.633853z m0-32.04889c-5.564598 0-8.631621 5.474686-8.631621 15.415037s3.067023 15.634823 8.631621 15.634823 8.58167-5.554608 8.58167-15.634823-3.047042-15.415037-8.58167-15.415037z" fill="#999999" p-id="6291"></path><path d="M459.743725 521.4778c-4.555578 0-7.163047-5.29486-7.163046-14.54588s2.607469-14.336084 7.163046-14.336084 7.113095 5.224928 7.113096 14.336084-2.587488 14.54588-7.113096 14.54588z m0-27.882934c-3.916199 0-6.164017 4.865277-6.164016 13.337054s2.247818 13.54685 6.164016 13.54685 6.114065-4.935209 6.114065-13.54685-2.227837-13.337054-6.114065-13.337054zM492.112305 522.996326h-19.630944v-2.257809l0.169835-0.149854c9.990302-8.621631 14.465958-14.985454 14.465958-20.629974 0-1.908148-0.559457-6.373813-5.824346-6.373813-3.057033 0-5.374783 2.30776-6.483707 3.676431l-0.33967 0.419593-2.31775-2.187877 0.32968-0.359651c1.938119-2.157905 4.725413-4.62551 9.071194-4.62551 5.594569 0 9.071195 3.586519 9.071195 9.370904s-3.716392 11.808537-12.377985 20.070518c1.208827-0.079922 2.527547-0.159845 3.736373-0.159845h10.130167z m-18.631914-0.99903h17.632884v-1.198837h-9.081185c-1.65839 0-3.546557 0.139864-5.065083 0.259748l-1.408633 0.099903 0.99903-0.99903c9.171098-8.551699 13.077306-14.625803 13.077306-20.300294 0-5.164986-3.087003-8.371873-8.072164-8.371874-2.997091 0-5.444715 1.218817-7.992242 3.936179l0.829195 0.779244a9.380894 9.380894 0 0 1 6.913289-3.63647c4.275849 0 6.823377 2.757323 6.823377 7.372843 0 5.924249-4.515617 12.477888-14.635793 21.239383zM511.163812 522.996326h-3.416684v-8.821437h-13.666733v-2.167896l13.926481-20.979635h3.186907v20.030556h4.375752v3.087004h-4.375752z m-2.417653-0.99903h1.418622v-8.821437h4.375753v-1.088943h-4.375753V492.026388h-1.648399l-13.436957 20.190402v0.929098h13.666734z" fill="#999999" p-id="6292"></path><path d="M508.746159 512.096906h-12.268092l8.991272-13.047335c0.849176-1.338701 1.688361-2.807275 2.427644-4.225898l0.139864-0.269738h0.969059l-0.049951 0.539476c-0.119884 1.408633-0.249758 3.696412-0.249758 5.095054z m-10.369934-0.99903h9.370903v-10.909411c0-0.889137 0.049952-2.137925 0.119884-3.296799-0.519496 0.919108-1.058972 1.838216-1.618429 2.707372zM523.681661 533.106512h-3.456645v-33.717271h2.997091l0.249757 2.387683c1.99806-1.478565 4.535597-2.997091 7.232979-2.997091 5.994181 0 9.5807 4.495636 9.5807 12.038314 0 8.351893-5.264889 12.727645-10.469837 12.727645a10.929391 10.929391 0 0 1-6.154026-2.267798v3.156935z m-2.457615-0.99903h1.458584l-0.049951-12.837539 0.819205 0.639379a10.669643 10.669643 0 0 0 6.353832 2.657421c4.705432 0 9.470807-3.996121 9.470807-11.728615 0-6.993212-3.126965-11.039284-8.58167-11.039284-2.677401 0-5.28487 1.728322-7.25296 3.246848l-0.129874 0.099903h-0.619398l-0.129874-0.449564-0.249758-2.307759h-1.088943z" fill="#999999" p-id="6293"></path><path d="M529.59592 521.397877a10.989333 10.989333 0 0 1-6.733464-2.877207l-0.179826-0.149854v-13.52687l0.169835-0.149854c2.907178-2.587488 5.184967-3.736373 7.372844-3.736373 4.855287 0 7.422795 3.416683 7.422794 9.880409 0 6.213968-3.31678 10.55975-8.052183 10.559749z m-5.914259-3.496605a9.620661 9.620661 0 0 0 5.914259 2.497575c4.215908 0 7.053153-3.846266 7.053153-9.560719 0-5.894278-2.157905-8.881379-6.423764-8.881379-1.858196 0-3.996121 1.058972-6.543648 3.336761zM561.33511 522.996326h-3.996121l-3.996121-6.213968a42.119115 42.119115 0 0 0-2.257808-3.646461q-0.509505 0.809214-0.99903 1.6484c-0.399612 0.65936-0.809214 1.32871-1.228807 1.998061l-3.786325 6.213968h-3.836276l7.992242-12.338024-7.332882-11.279051h3.916198l3.62648 5.794375c0.619399 0.99903 1.298739 2.077983 2.067993 3.216878 0.419593-0.689331 0.819205-1.368671 1.238797-2.067993l4.185937-6.993212h3.776334l-7.312901 11.528809z m-3.376722-0.99903h1.558487l-7.312901-11.079246 6.693502-10.539769h-1.398642l-3.886227 6.463726c-0.529486 0.869156-0.99903 1.738313-1.568478 2.597478l-0.149854 0.229777h-0.709312l-0.149855-0.209796c-0.929098-1.348691-1.728322-2.577498-2.437633-3.766344l-3.326771-5.314841h-1.518526l6.673522 10.280021-7.352863 11.338994h1.428614l3.506596-5.744424c0.429583-0.66935 0.829195-1.32871 1.228807-1.998061s0.879147-1.438604 1.32871-2.137924l0.139865-0.229777h0.749272l0.149855 0.209796a42.9583 42.9583 0 0 1 2.617459 4.165956zM640.198557 503.285459l-0.319689-0.269738a13.566831 13.566831 0 0 0-1.708342-1.208827l-0.589428-0.34966 0.509505-0.459554a40.96024 40.96024 0 0 0 9.720565-14.246171l0.169835-0.419593 2.997091 0.889137-0.239768 0.519496c-0.509505 1.138894-1.068962 2.337731-1.688361 3.496606h26.973817v2.907178h-28.642197a45.405924 45.405924 0 0 1-6.853348 8.861398z m-0.99903-1.99806c0.31969 0.219787 0.65936 0.459554 0.939088 0.67934a44.217078 44.217078 0 0 0 6.513678-8.581669l0.149854-0.249758h28.172653v-0.909118h-27.673138l0.419593-0.749272c0.66935-1.178856 1.268768-2.437634 1.818235-3.63647l-0.99903-0.299709a42.398843 42.398843 0 0 1-9.330943 13.716685z" fill="#999999" p-id="6294"></path><path d="M665.05443 526.12329c-1.158875 0-2.747333 0-4.375753-0.189815h-0.419593v-0.429583a4.195927 4.195927 0 0 0-0.479534-1.528517l-0.479535-0.819204 0.999031 0.069932c2.267799 0.169835 4.375752 0.219787 5.174976 0.219786s0.99903-0.099903 1.188846-0.369641a6.62357 6.62357 0 0 0 0.809215-2.457614h-25.185553l0.119884-0.589428c0.31969-1.698351 0.99903-5.105045 1.63841-9.380894h-5.994182v-2.867217h6.433755c0.449564-2.997091 0.899127-6.313871 1.258778-9.320952v-0.439573h26.10466V499.658979l-0.109893 2.997091c-0.069932 1.868187-0.129874 3.556548-0.209796 5.135016h5.914259v2.867216h-5.994182c-0.139864 2.64743-0.309699 4.995151-0.519496 7.103105h5.254899v2.867217h-5.63453a9.670613 9.670613 0 0 1-1.298739 4.086034 3.996121 3.996121 0 0 1-3.077014 1.428613z m-3.896218-1.128904c1.99806 0.139864 3.836276 0.169835 4.845296 0.129874a2.997091 2.997091 0 0 0 2.357712-1.048982 9.990302 9.990302 0 0 0 1.158875-3.99612l0.059942-0.429583h5.494666v-0.869157h-5.364793l0.059942-0.549466c0.239767-2.29777 0.439573-4.995151 0.589428-8.082155v-0.469544h5.994182v-0.869157h-5.994182v-0.529486c0.089913-1.718332 0.149855-3.576528 0.229777-5.63453l0.109893-2.997091v-0.619399h-24.046657c-0.369641 2.997091-0.819205 6.333852-1.268769 9.330943l-0.059942 0.429583h-6.30388v0.869156h6.193987l-0.089913 0.579438c-0.639379 4.096024-1.258778 7.462756-1.628419 9.390884h25.065669l-0.089913 0.579437a8.771485 8.771485 0 0 1-1.108924 3.486616 2.217847 2.217847 0 0 1-1.99806 0.759263c-0.709311 0-2.447624 0-4.425704-0.159845a4.835306 4.835306 0 0 1 0.219787 0.699321z" fill="#999999" p-id="6295"></path><path d="M668.670919 518.720476h-23.976726l0.379632-2.33773c0.31969-1.938119 0.679341-4.086034 0.99903-6.343842l0.069932-0.419593h23.227453v0.519496c-0.169835 3.376722-0.389622 6.124055-0.639379 8.152086z m-22.80786-0.99903h21.978665c0.219787-1.838216 0.399612-4.225898 0.549467-7.103105h-21.379248c-0.32968 2.097964-0.65936 4.116005-0.99903 5.924249zM669.380231 508.750155h-23.067609l0.179826-1.29874c0.349661-2.507566 0.689331-4.885258 0.99903-7.153056v-0.439573h22.258394v0.509505c-0.069932 2.557517-0.179825 5.075074-0.339671 7.912319z m-21.918724-0.999031h20.979635c0.129874-2.447624 0.229777-4.665471 0.289719-6.893308h-20.340256c-0.269738 2.147915-0.579438 4.375752-0.909117 6.733464z" fill="#999999" p-id="6296"></path><path d="M660.309036 518.700496l-0.369641-0.379632a37.33376 37.33376 0 0 0-8.57168-5.894278l-0.599418-0.299709 1.908148-1.998061 0.31969 0.159845a39.271879 39.271879 0 0 1 8.92134 5.854317l0.33967 0.339671z m-7.892339-6.853348a39.891277 39.891277 0 0 1 7.852378 5.394764l0.599418-0.689331a40.29089 40.29089 0 0 0-7.992242-5.184967zM661.218153 508.25064l-0.379631-0.359651a32.688269 32.688269 0 0 0-8.042193-5.045103l-0.669351-0.289719 1.998061-1.99806 0.309699 0.129874a33.747241 33.747241 0 0 1 8.331912 5.065083l0.359651 0.32968z m-7.362852-5.994182a34.966058 34.966058 0 0 1 7.29292 4.575559l0.569448-0.63938a33.757232 33.757232 0 0 0-7.382834-4.415713zM690.200021 526.063349h-2.997091v-20.580023a45.26606 45.26606 0 0 1-5.164986 11.119206l-0.469545 0.64937-0.379631-0.699321a10.849468 10.849468 0 0 0-1.158875-1.728323l-0.279729-0.309699 0.249758-0.31969c2.527547-3.396703 5.314841-10.160138 6.733464-16.274202h-5.994182v-2.897188h6.453736v-8.321922h2.99709v8.321922h5.095055v2.947139h-5.095055v0.999031c1.208827 1.628419 4.135985 5.914259 4.925219 7.103105l0.209797 0.299709-2.077983 2.537536-0.349661-0.67934c-0.399612-0.809214-1.32871-2.407663-2.707372-4.685452z m-1.998061-0.999031h0.99903v-25.12561l0.929099 1.518526c1.568477 2.567508 2.687391 4.445685 3.31678 5.594569l0.639379-0.789234c-0.99903-1.518526-3.736373-5.484676-4.785355-6.883318l-0.099903-0.129874v-2.32774h5.095055v-0.899128h-5.095055v-8.321921h-0.99903v8.321921h-6.453735v0.949079h6.233949l-0.139865 0.609409c-1.358681 6.203978-4.185937 13.237151-6.813386 16.983514 0.209796 0.269738 0.429583 0.599418 0.629389 0.919107a54.19739 54.19739 0 0 0 5.564599-13.297092l0.99903-3.356742z" fill="#999999" p-id="6297"></path><path d="M693.626694 511.417565l-0.179825-0.429583a5.254899 5.254899 0 0 0-0.99903-1.538506l-0.739283-0.589428 0.899128-0.279729a45.385944 45.385944 0 0 0 11.988362-5.774394 28.262565 28.262565 0 0 1-4.775364-5.784385 32.858105 32.858105 0 0 1-3.606499 4.495636l-0.399612 0.409602-0.349661-0.459554a16.444038 16.444038 0 0 0-1.388652-1.418623l-0.389622-0.359651 0.379632-0.369641a33.69729 33.69729 0 0 0 7.692533-12.377984l0.149854-0.429583 2.847236 0.779243-0.199806 0.519496c-0.459554 1.158875-0.919108 2.31775-1.438603 3.426674h11.758586l0.519495-0.109894 1.758294 1.148885-0.169836 0.389622a28.901945 28.901945 0 0 1-7.922309 10.349953 35.535506 35.535506 0 0 0 10.659652 5.145006l0.759263 0.229777-0.529486 0.589428a4.925219 4.925219 0 0 0-0.829195 1.548496l-0.149854 0.489525-0.479535-0.159845a38.242878 38.242878 0 0 1-11.678663-6.094084 46.954421 46.954421 0 0 1-12.777597 6.503687z m0-2.127934a6.833367 6.833367 0 0 1 0.559457 0.889137 45.146176 45.146176 0 0 0 12.397966-6.443745l0.309699-0.229777 0.299709 0.239767a37.183905 37.183905 0 0 0 11.179148 5.994182 6.054123 6.054123 0 0 1 0.429583-0.839186 36.304759 36.304759 0 0 1-10.819497-5.484676l-0.509505-0.379631 0.489524-0.409603a27.972847 27.972847 0 0 0 7.992242-9.990302l-0.699321-0.459554H701.489062l0.379632-0.729292a37.643459 37.643459 0 0 0 1.548497-3.416684l-0.879147-0.239767a35.205826 35.205826 0 0 1-7.402814 11.988363c0.239767 0.229777 0.509505 0.499515 0.739282 0.749273a33.607377 33.607377 0 0 0 3.556548-4.61552l0.449564-0.709311 0.399612 0.739282a27.073719 27.073719 0 0 0 5.384773 6.62357l0.449563 0.409603-0.499515 0.359651a45.306021 45.306021 0 0 1-12.018334 5.95422z" fill="#999999" p-id="6298"></path><path d="M715.925049 526.063349h-2.99709v-2.067993h-12.747626v2.077983h-2.997091V510.008933h18.701846z m-1.99806-0.999031h0.99903V511.007963H698.222233v14.106307h0.999031v-2.117944h14.745686z" fill="#999999" p-id="6299"></path><path d="M713.926989 522.077218h-14.745686v-10.25005h14.745686z m-13.746656-0.99903h12.747626v-8.25199h-12.747626zM706.713991 502.456264l-0.31969-0.279728a25.665087 25.665087 0 0 1-5.994182-7.58264l-0.119883-0.239767 0.699321-1.198836h13.516879l-0.389622 0.729292a27.503302 27.503302 0 0 1-7.093114 8.301941z m-5.27488-8.072164a24.336377 24.336377 0 0 0 5.29486 6.753444 26.504272 26.504272 0 0 0 6.094085-6.993211h-11.249081zM731.889553 502.016691a3.146945 3.146945 0 0 1-3.216878-3.206887c0-4.225898 6.433755-4.225898 6.433755 0a3.146945 3.146945 0 0 1-3.216877 3.206887z m0-5.424734a2.117944 2.117944 0 0 0-2.217848 2.217847 2.217847 2.217847 0 0 0 4.435695 0 2.117944 2.117944 0 0 0-2.217847-2.237828zM731.889553 523.096229a3.156936 3.156936 0 0 1-3.216878-3.216878c0-4.225898 6.433755-4.225898 6.433755 0a3.156936 3.156936 0 0 1-3.216877 3.216878z m0-5.434725a2.117944 2.117944 0 0 0-2.217848 2.217847 2.217847 2.217847 0 0 0 4.435695 0 2.117944 2.117944 0 0 0-2.217847-2.217847zM754.92719 523.565773c-6.523667 0-10.429876-5.854317-10.429876-15.654804 0-15.694765 8.132106-17.393116 11.618722-17.393116a8.991272 8.991272 0 0 1 6.993211 3.136955l0.29971 0.33967-2.177886 2.367702-0.369642-0.449564a5.994181 5.994181 0 0 0-4.665471-2.277789c-4.935209 0-7.822407 4.425704-8.202038 12.507859a9.990302 9.990302 0 0 1 6.93327-3.186907c5.654511 0 8.901359 3.726383 8.901359 10.22008-0.069932 5.824346-3.926189 10.389914-8.901359 10.389914z m1.188846-32.04889c-6.743454 0-10.619691 5.994181-10.619692 16.394086 0 9.171098 3.526577 14.655774 9.430846 14.655774 4.415714 0 7.862368-4.125995 7.862368-9.390884 0-5.994181-2.807275-9.221049-7.902329-9.22105a9.440836 9.440836 0 0 0-7.083125 3.846267l-0.899127 1.108923v-1.428613c0.159845-12.917461 5.864307-14.845589 9.24103-14.845589a6.903299 6.903299 0 0 1 5.065083 2.217847l0.789234-0.859166a7.892339 7.892339 0 0 0-5.884288-2.477595z" fill="#999999" p-id="6300"></path><path d="M754.977141 521.4778c-4.745394 0-7.59263-4.116005-7.992242-11.588751v-0.179825l0.099903-0.139865c2.167896-2.937149 4.895248-4.61552 7.492727-4.615519 4.30582 0 6.783415 2.997091 6.783416 8.222019-0.029971 4.735403-2.767314 8.301941-6.383804 8.301941z m-6.993211-11.458877c0.299709 4.815326 1.758293 10.459847 6.993211 10.459847 2.997091 0 5.354802-3.136955 5.354802-7.302911 0-3.2968-0.99903-7.222989-5.784385-7.222989-1.058972 0-3.776334 0.399612-6.573619 4.056063zM782.590337 522.996326h-3.416683v-8.821437h-13.666734v-2.167896l13.896511-20.979635h3.186906v20.030556h4.375753v3.087004h-4.375753z m-2.417653-0.99903h1.418623v-8.821437h4.375752v-1.088943h-4.375752V492.026388h-1.6484l-13.436957 20.190402v0.929098h13.666734z" fill="#999999" p-id="6301"></path><path d="M780.172684 512.096906h-12.268091l8.93133-13.077306c0.859166-1.338701 1.698351-2.807275 2.437634-4.225898l0.139864-0.269738h1.058972l-0.049952 0.539476c-0.119884 1.408633-0.249758 3.696412-0.249757 5.095055z m-10.379924-0.99903h9.380894v-10.909411c0-0.889137 0.049952-2.137925 0.119883-3.296799-0.519496 0.919108-1.058972 1.838216-1.618429 2.707372zM807.715948 522.996326h-3.996121l-3.996121-6.213968a42.28895 42.28895 0 0 0-2.267799-3.646461c-0.33967 0.539476-0.66935 1.088943-0.99903 1.6484s-0.809214 1.32871-1.238798 1.998061l-3.766344 6.213968h-3.826285l7.992241-12.338024-7.332882-11.279051h3.916199l3.62648 5.794375c0.609408 0.99903 1.288749 2.077983 2.058002 3.216878 0.419593-0.689331 0.829195-1.368671 1.238798-2.067993l4.185936-6.993212h3.786325l-7.372843 11.588751z m-3.416684-0.99903h1.558487l-7.302911-11.079246 6.693503-10.539769h-1.398642l-3.896218 6.463726c-0.519496 0.869156-0.99903 1.738313-1.568478 2.597478l-0.149854 0.229777h-0.709312l-0.139864-0.209796a61.44036 61.44036 0 0 1-2.437634-3.766344l-3.336761-5.314841h-1.518526l6.683512 10.280021-7.322891 11.338994h1.438603l3.506597-5.744424c0.419593-0.66935 0.829195-1.32871 1.218816-1.998061s0.879147-1.438604 1.328711-2.137924l0.149854-0.229777h0.739283l0.149854 0.209796a42.9583 42.9583 0 0 1 2.617459 4.165956zM819.864155 523.565773c-6.533658 0-10.439866-5.854317-10.439866-15.654804 0-15.694765 8.132106-17.393116 11.628712-17.393116a8.93133 8.93133 0 0 1 6.94326 3.136955l0.3097 0.33967-2.187876 2.367702-0.359651-0.449564a5.994181 5.994181 0 0 0-4.665472-2.277789c-4.9452 0-7.832397 4.425704-8.212028 12.507859a9.990302 9.990302 0 0 1 6.93327-3.186907c5.664501 0 8.901359 3.726383 8.901359 10.22008-0.019981 5.824346-3.886228 10.389914-8.851408 10.389914z m1.188846-32.04889c-6.753444 0-10.629682 5.994181-10.629681 16.394086 0 9.171098 3.526577 14.655774 9.440835 14.655774 4.405723 0 7.852378-4.125995 7.852378-9.390884 0-5.994181-2.807275-9.221049-7.902329-9.22105a9.460816 9.460816 0 0 0-7.083125 3.846267l-0.899127 1.108923v-1.428613c0.149855-12.917461 5.854317-14.845589 9.24103-14.845589a6.883318 6.883318 0 0 1 5.055093 2.217847l0.799224-0.859166a7.92231 7.92231 0 0 0-5.874298-2.477595z" fill="#999999" p-id="6302"></path><path d="M819.904117 521.4778c-4.745394 0-7.59263-4.116005-7.992242-11.588751v-0.179825l0.109893-0.139865c2.157905-2.937149 4.885258-4.61552 7.482736-4.615519 4.315811 0 6.783415 2.997091 6.783416 8.222019-0.029971 4.735403-2.757323 8.301941-6.383803 8.301941z m-6.993212-11.458877c0.299709 4.815326 1.768284 10.459847 6.993212 10.459847 3.057033 0 5.354802-3.136955 5.354802-7.302911 0-3.2968-0.99903-7.222989-5.784385-7.222989-1.058972 0-3.766344 0.399612-6.573619 4.056063zM847.517312 522.996326h-3.416683v-8.821437h-13.666734v-2.167896l13.896511-20.979635h3.186906v20.030556h4.375753v3.087004h-4.375753z m-2.417653-0.99903h1.418623v-8.821437h4.375753v-1.088943h-4.375753V492.026388h-1.6484l-13.436957 20.190402v0.929098h13.666734z" fill="#999999" p-id="6303"></path><path d="M845.099659 512.096906h-12.268091l8.991272-13.047335c0.849176-1.338701 1.698351-2.807275 2.427643-4.225898l0.139865-0.269738h1.058972l-0.049952 0.539476c-0.119884 1.408633-0.249758 3.696412-0.249757 5.095054z m-10.369934-0.99903h9.370904v-10.909411c0-0.889137 0.049952-2.137925 0.119884-3.296799-0.509505 0.919108-1.058972 1.838216-1.618429 2.707372zM860.035161 533.106512h-3.456644v-33.717271h2.99709l0.249758 2.387683c1.99806-1.478565 4.535597-2.997091 7.232979-2.997091 5.994181 0 9.5807 4.495636 9.5807 12.038314 0 8.351893-5.264889 12.727645-10.469837 12.727645a10.929391 10.929391 0 0 1-6.154026-2.267798v3.156935z m-2.457614-0.99903h1.458584v-12.837539l0.819205 0.639379a10.669643 10.669643 0 0 0 6.353832 2.657421c4.705432 0 9.470807-3.996121 9.470807-11.728615 0-6.993212-3.126965-11.039284-8.58167-11.039284-2.677401 0-5.28487 1.728322-7.25296 3.246848l-0.129873 0.099903h-0.619399l-0.129874-0.449564-0.249758-2.307759h-1.088943z" fill="#999999" p-id="6304"></path><path d="M865.94942 521.397877a10.989333 10.989333 0 0 1-6.733464-2.877207l-0.179825-0.149854v-13.52687l0.169835-0.149854c2.907178-2.587488 5.184967-3.736373 7.372843-3.736373 4.855287 0 7.422795 3.416683 7.422795 9.880409 0 6.213968-3.346751 10.55975-8.052184 10.559749z m-5.914259-3.496605a9.620661 9.620661 0 0 0 5.914259 2.497575c4.215908 0 7.053153-3.846266 7.053154-9.560719 0-5.894278-2.157905-8.881379-6.423765-8.881379-1.858196 0-3.946169 1.058972-6.543648 3.336761zM897.678621 522.996326h-3.996121l-3.996121-6.213968a41.549668 41.549668 0 0 0-2.257809-3.646461c-0.349661 0.549467-0.689331 1.098933-0.99903 1.668381s-0.799224 1.31872-1.218817 1.99806l-3.796315 6.213968h-3.826286l7.992242-12.338023-7.332882-11.279051h3.916199l3.62648 5.794375c0.619399 0.99903 1.298739 2.087973 2.067992 3.216877l1.238798-2.067992 4.175946-6.993212h3.786325l-7.322892 11.528809z m-3.406694-0.99903h1.558488l-7.312902-11.079246 6.693503-10.539769h-1.398642l-3.886228 6.463726c-0.529486 0.869156-0.99903 1.738313-1.578468 2.597478l-0.139864 0.229777h-0.709312l-0.149854-0.209796c-0.929098-1.338701-1.718332-2.567508-2.437634-3.766344l-3.326771-5.314841h-1.518526l6.673522 10.280021-7.312901 11.338994h1.428613l3.506596-5.744424 1.218817-1.998061c0.439573-0.739282 0.879147-1.458584 1.338701-2.157905l0.139864-0.229777h0.749273l0.149854 0.209796a45.735604 45.735604 0 0 1 2.61746 4.165956z" fill="#999999" p-id="6305"></path><path d="M513.002027 1009.45412a495.319192 495.319192 0 0 1-194.740964-39.581578A505.629184 505.629184 0 0 1 51.380125 702.991604a498.855759 498.855759 0 0 1 0-389.481929A505.629184 505.629184 0 0 1 318.261063 46.628737a498.855759 498.855759 0 0 1 389.481929 0 505.629184 505.629184 0 0 1 266.880938 266.880938 498.855759 498.855759 0 0 1 0 389.481929 505.629184 505.629184 0 0 1-266.880938 266.880938 495.319192 495.319192 0 0 1-194.740965 39.581578z m0-902.503937c-221.275207 0-401.300456 180.025249-401.300456 401.300457s180.025249 401.300456 401.300456 401.300456 401.300456-180.025249 401.300457-401.300456-180.025249-401.300456-401.300457-401.300457z" fill="#2276F3" p-id="6306"></path><path d="M513.002027 1009.45412c-98.45443 0-190.535047-37.843265-259.258337-106.576546s-106.566556-160.843868-106.566555-259.248347S185.0204 453.064209 253.74369 384.37089 414.547597 277.794344 513.002027 277.794344s190.535047 37.853256 259.258337 106.576546 106.566556 160.843868 106.566556 259.258337-37.843265 190.525057-106.566556 259.248347-160.803907 106.576546-259.258337 106.576546z m0-631.756752c-149.115253 0-265.921869 116.806615-265.921868 265.931859S363.886774 909.551096 513.002027 909.551096 778.923896 792.73449 778.923896 643.629227 662.117281 377.697368 513.002027 377.697368z" fill="#2276F3" p-id="6307"></path><path d="M513.002027 1009.45412a230.985781 230.985781 0 1 1 162.841929-67.654328 228.837866 228.837866 0 0 1-162.841929 67.654328z m0-360.999577c-71.990119 0-130.553272 58.563153-130.553271 130.543281a130.553272 130.553272 0 0 0 261.106543 0c0-71.980129-58.563153-130.543281-130.553272-130.543281z" fill="#2276F3" p-id="6308"></path></svg>