<?xml version="1.0" standalone="no"?><!DOCTYPE svg PUBLIC "-//W3C//DTD SVG 1.1//EN" "http://www.w3.org/Graphics/SVG/1.1/DTD/svg11.dtd"><svg t="1725112394832" class="icon" viewBox="0 0 1024 1024" version="1.1" xmlns="http://www.w3.org/2000/svg" p-id="6130" xmlns:xlink="http://www.w3.org/1999/xlink" width="200" height="200"><path d="M257.917603 847.250697c140.326352 0 254.082397-113.756045 254.082397-254.082397s-113.756045-254.082397-254.082397-254.082397S3.835206 452.841948 3.835206 593.1683s113.756045 254.082397 254.082397 254.082397z" fill="#4CE7FF" opacity=".95" p-id="6131"></path><path d="M512 848.339895c191.898367 0 347.465828-155.563625 347.465828-347.465828C859.465828 308.9757 703.898367 153.40824 512 153.40824c-191.902202 0-347.469663 155.567461-347.469663 347.465827 0 191.902202 155.567461 347.465828 347.469663 347.465828z" fill="#0067C2" opacity=".95" p-id="6132"></path><path d="M766.082397 847.250697c140.326352 0 254.082397-113.756045 254.082397-254.082397s-113.756045-254.082397-254.082397-254.082397-254.082397 113.756045-254.082397 254.082397 113.756045 254.082397 254.082397 254.082397z" fill="#4CE7FF" opacity=".95" p-id="6133"></path></svg>